# Blender v2.79 (sub 0) OBJ File: 'chain_ceiling.blend'
# www.blender.org
o Cube
v -0.187500 0.437500 0.187500
v -0.187500 0.500000 0.187500
v -0.187500 0.437500 -0.187500
v -0.187500 0.500000 -0.187500
v 0.187500 0.437500 0.187500
v 0.187500 0.500000 0.187500
v 0.187500 0.437500 -0.187500
v 0.187500 0.500000 -0.187500
vt 0.687500 0.937500
vt 0.687500 1.000000
vt 0.312500 1.000000
vt 0.312500 0.937500
vt 0.687500 0.937500
vt 0.687500 1.000000
vt 0.312500 1.000000
vt 0.312500 0.937500
vt 0.687500 0.937500
vt 0.687500 1.000000
vt 0.312500 1.000000
vt 0.312500 0.937500
vt 0.687500 0.937500
vt 0.687500 1.000000
vt 0.312500 1.000000
vt 0.312500 0.937500
vt 0.312500 0.312500
vt 0.312500 0.687500
vt 0.687500 0.687500
vt 0.687500 0.312500
vt 0.312500 0.312500
vt 0.687500 0.312500
vt 0.687500 0.687500
vt 0.312500 0.687500
vn -1.0000 0.0000 0.0000
vn 0.0000 0.0000 -1.0000
vn 1.0000 0.0000 0.0000
vn 0.0000 0.0000 1.0000
vn 0.0000 -1.0000 0.0000
vn 0.0000 1.0000 0.0000
s off
f 1/1/1 2/2/1 4/3/1 3/4/1
f 3/5/2 4/6/2 8/7/2 7/8/2
f 7/9/3 8/10/3 6/11/3 5/12/3
f 5/13/4 6/14/4 2/15/4 1/16/4
f 3/17/5 7/18/5 5/19/5 1/20/5
f 8/21/6 4/22/6 2/23/6 6/24/6
o Torus
v 0.000000 0.343753 0.000000
v 0.015625 0.359378 0.000000
v 0.000000 0.375003 0.000000
v -0.015625 0.359378 0.000000
v 0.000000 0.375003 -0.054127
v 0.015625 0.382815 -0.040595
v 0.000000 0.390628 -0.027063
v -0.015625 0.382815 -0.040595
v 0.000000 0.375003 0.054127
v 0.015625 0.382815 0.040595
v 0.000000 0.390628 0.027063
v -0.015625 0.382815 0.040595
v 0.000000 -0.156247 0.000000
v 0.015625 -0.140622 0.000000
v 0.000000 -0.124997 0.000000
v -0.015625 -0.140622 0.000000
v 0.000000 -0.124997 -0.054127
v 0.015625 -0.117185 -0.040595
v 0.000000 -0.109372 -0.027063
v -0.015625 -0.117185 -0.040595
v -0.000000 0.000003 -0.054127
v 0.015625 -0.007810 -0.040595
v -0.000000 -0.015622 -0.027063
v -0.015625 -0.007810 -0.040595
v -0.000000 0.031253 -0.000000
v 0.015625 0.015628 -0.000000
v -0.000000 0.000003 -0.000000
v -0.015625 0.015628 -0.000000
v -0.000000 0.000003 0.054127
v 0.015625 -0.007810 0.040595
v -0.000000 -0.015622 0.027063
v -0.015625 -0.007810 0.040595
v 0.000000 -0.124997 0.054127
v 0.015625 -0.117185 0.040595
v 0.000000 -0.109372 0.027063
v -0.015625 -0.117185 0.040595
v 0.000000 -0.281247 0.000000
v 0.000000 -0.265622 0.015625
v 0.000000 -0.249997 0.000000
v 0.000000 -0.265622 -0.015625
v 0.054127 -0.249997 0.000000
v 0.040595 -0.242185 0.015625
v 0.027063 -0.234372 0.000000
v 0.040595 -0.242185 -0.015625
v 0.054127 -0.124997 0.000000
v 0.040595 -0.132810 0.015625
v 0.027063 -0.140622 0.000000
v 0.040595 -0.132810 -0.015625
v 0.000000 -0.093747 0.000000
v -0.000000 -0.109372 0.015625
v 0.000000 -0.109372 -0.015625
v -0.054127 -0.124997 -0.000000
v -0.040595 -0.132810 0.015625
v -0.027063 -0.140622 -0.000000
v -0.040595 -0.132810 -0.015625
v -0.054127 -0.249997 -0.000000
v -0.040595 -0.242185 0.015625
v -0.027063 -0.234372 -0.000000
v -0.040595 -0.242185 -0.015625
v -0.000000 -0.531247 0.000000
v -0.000000 -0.515622 0.015625
v -0.000000 -0.499997 0.000000
v -0.000000 -0.515622 -0.015625
v 0.054127 -0.499997 0.000000
v 0.040595 -0.492185 0.015625
v 0.027063 -0.484372 0.000000
v 0.040595 -0.492185 -0.015625
v 0.054127 -0.374997 0.000000
v 0.040595 -0.382810 0.015625
v 0.027063 -0.390622 0.000000
v 0.040595 -0.382810 -0.015625
v -0.000000 -0.343747 0.000000
v -0.000000 -0.359372 0.015625
v -0.000000 -0.374997 0.000000
v -0.000000 -0.359372 -0.015625
v -0.054127 -0.374997 -0.000000
v -0.040595 -0.382810 0.015625
v -0.027063 -0.390622 -0.000000
v -0.040595 -0.382810 -0.015625
v -0.054127 -0.499997 -0.000000
v -0.040595 -0.492185 0.015625
v -0.027063 -0.484372 -0.000000
v -0.040595 -0.492185 -0.015625
v 0.000000 -0.406247 0.000000
v 0.015625 -0.390622 0.000000
v -0.015625 -0.390622 0.000000
v 0.000000 -0.374997 -0.054127
v 0.015625 -0.367185 -0.040595
v 0.000000 -0.359372 -0.027063
v -0.015625 -0.367185 -0.040595
v -0.000000 -0.249997 -0.054127
v 0.015625 -0.257810 -0.040595
v -0.000000 -0.265622 -0.027063
v -0.015625 -0.257810 -0.040595
v -0.000000 -0.218747 -0.000000
v 0.015625 -0.234372 -0.000000
v -0.015625 -0.234372 -0.000000
v -0.000000 -0.249997 0.054127
v 0.015625 -0.257810 0.040595
v -0.000000 -0.265622 0.027063
v -0.015625 -0.257810 0.040595
v 0.000000 -0.374997 0.054127
v 0.015625 -0.367185 0.040595
v 0.000000 -0.359372 0.027063
v -0.015625 -0.367185 0.040595
v 0.000000 0.093753 0.000000
v 0.015625 0.109378 0.000000
v -0.015625 0.109378 0.000000
v 0.000000 0.125003 -0.054127
v 0.015625 0.132815 -0.040595
v 0.000000 0.140628 -0.027063
v -0.015625 0.132815 -0.040595
v 0.000000 0.250003 -0.054127
v 0.015625 0.242190 -0.040595
v 0.000000 0.234378 -0.027063
v -0.015625 0.242190 -0.040595
v 0.000000 0.281253 -0.000000
v 0.015625 0.265628 -0.000000
v 0.000000 0.250003 -0.000000
v -0.015625 0.265628 -0.000000
v 0.000000 0.250003 0.054127
v 0.015625 0.242190 0.040595
v 0.000000 0.234378 0.027063
v -0.015625 0.242190 0.040595
v 0.000000 0.125003 0.054127
v 0.015625 0.132815 0.040595
v 0.000000 0.140628 0.027063
v -0.015625 0.132815 0.040595
v 0.000000 -0.031247 0.000000
v 0.000000 -0.015622 0.015625
v 0.000000 -0.015622 -0.015625
v 0.054127 0.000003 0.000000
v 0.040595 0.007815 0.015625
v 0.027063 0.015628 0.000000
v 0.040595 0.007815 -0.015625
v 0.054127 0.125003 0.000000
v 0.040595 0.117190 0.015625
v 0.027063 0.109378 0.000000
v 0.040595 0.117190 -0.015625
v 0.000000 0.156253 0.000000
v 0.000000 0.140628 0.015625
v 0.000000 0.125003 0.000000
v 0.000000 0.140628 -0.015625
v -0.054127 0.125003 -0.000000
v -0.040595 0.117190 0.015625
v -0.027063 0.109378 -0.000000
v -0.040595 0.117190 -0.015625
v -0.054127 0.000003 -0.000000
v -0.040595 0.007815 0.015625
v -0.027063 0.015628 -0.000000
v -0.040595 0.007815 -0.015625
v 0.000000 0.218753 0.000000
v 0.000000 0.234378 0.015625
v 0.000000 0.234378 -0.015625
v 0.054127 0.250003 0.000000
v 0.040595 0.257815 0.015625
v 0.027063 0.265628 0.000000
v 0.040595 0.257815 -0.015625
v 0.054127 0.375003 0.000000
v 0.040595 0.367190 0.015625
v 0.027063 0.359378 0.000000
v 0.040595 0.367190 -0.015625
v 0.000000 0.406253 0.000000
v 0.000000 0.390628 0.015625
v 0.000000 0.390628 -0.015625
v -0.054127 0.375003 -0.000000
v -0.040595 0.367190 0.015625
v -0.027063 0.359378 -0.000000
v -0.040595 0.367190 -0.015625
v -0.054127 0.250003 -0.000000
v -0.040595 0.257815 0.015625
v -0.027063 0.265628 -0.000000
v -0.040595 0.257815 -0.015625
v 0.000000 0.437500 0.054127
v -0.015625 0.437500 0.040595
v 0.000000 0.437500 0.027063
v 0.015625 0.437500 0.040595
v 0.000000 0.437500 -0.054127
v 0.015625 0.437500 -0.040595
v -0.015625 0.437500 -0.040595
v 0.000000 0.437500 -0.027063
vt 0.500000 0.823529
vt 0.469913 0.852941
vt 0.468750 0.860294
vt 0.491315 0.838235
vt 0.484957 0.867647
vt 0.500000 0.852941
vt 0.486120 0.860294
vt 0.508685 0.838235
vt 0.469913 0.911762
vt 0.468750 0.911762
vt 0.484957 0.911762
vt 0.486120 0.911762
vt 0.530087 0.852941
vt 0.513880 0.860294
vt 0.515043 0.867647
vt 0.531250 0.860294
vt 0.500000 0.352941
vt 0.469913 0.382353
vt 0.468750 0.389706
vt 0.491315 0.367647
vt 0.484957 0.397059
vt 0.500000 0.382353
vt 0.486120 0.389706
vt 0.508685 0.367647
vt 0.469913 0.500000
vt 0.468750 0.492647
vt 0.484957 0.485294
vt 0.486120 0.492647
vt 0.500000 0.529412
vt 0.491315 0.514706
vt 0.500000 0.500000
vt 0.508685 0.514706
vt 0.530087 0.500000
vt 0.513880 0.492647
vt 0.515043 0.485294
vt 0.531250 0.492647
vt 0.530087 0.382353
vt 0.513880 0.389706
vt 0.515043 0.397059
vt 0.531250 0.389706
vt 0.500000 0.235294
vt 0.469913 0.264706
vt 0.486120 0.272059
vt 0.508685 0.250000
vt 0.484957 0.279412
vt 0.500000 0.264706
vt 0.468750 0.272059
vt 0.491315 0.250000
vt 0.469913 0.382353
vt 0.486120 0.375000
vt 0.484957 0.367647
vt 0.468750 0.375000
vt 0.500000 0.411765
vt 0.508685 0.397059
vt 0.491315 0.397059
vt 0.530087 0.382353
vt 0.531250 0.375000
vt 0.515043 0.367647
vt 0.513880 0.375000
vt 0.530087 0.264706
vt 0.531250 0.272059
vt 0.515043 0.279412
vt 0.513880 0.272059
vt 0.500000 0.000000
vt 0.469913 0.029412
vt 0.486120 0.036765
vt 0.508685 0.014706
vt 0.484957 0.044118
vt 0.500000 0.029412
vt 0.468750 0.036765
vt 0.491315 0.014706
vt 0.469913 0.147059
vt 0.486120 0.139706
vt 0.484957 0.132353
vt 0.468750 0.139706
vt 0.500000 0.176471
vt 0.508685 0.161765
vt 0.500000 0.147059
vt 0.491315 0.161765
vt 0.530087 0.147059
vt 0.531250 0.139706
vt 0.515043 0.132353
vt 0.513880 0.139706
vt 0.530087 0.029412
vt 0.531250 0.036765
vt 0.515043 0.044118
vt 0.513880 0.036765
vt 0.500000 0.117647
vt 0.469913 0.147059
vt 0.468750 0.154412
vt 0.491315 0.132353
vt 0.484957 0.161765
vt 0.486120 0.154412
vt 0.508685 0.132353
vt 0.469913 0.264706
vt 0.468750 0.257353
vt 0.484957 0.250000
vt 0.486120 0.257353
vt 0.500000 0.294118
vt 0.491315 0.279412
vt 0.508685 0.279412
vt 0.530087 0.264706
vt 0.513880 0.257353
vt 0.515043 0.250000
vt 0.531250 0.257353
vt 0.530087 0.147059
vt 0.513880 0.154412
vt 0.515043 0.161765
vt 0.531250 0.154412
vt 0.500000 0.588235
vt 0.469913 0.617647
vt 0.468750 0.625000
vt 0.491315 0.602941
vt 0.484957 0.632353
vt 0.500000 0.617647
vt 0.486120 0.625000
vt 0.508685 0.602941
vt 0.469913 0.735294
vt 0.468750 0.727941
vt 0.484957 0.720588
vt 0.486120 0.727941
vt 0.500000 0.764706
vt 0.491315 0.750000
vt 0.500000 0.735294
vt 0.508685 0.750000
vt 0.530087 0.735294
vt 0.513880 0.727941
vt 0.515043 0.720588
vt 0.531250 0.727941
vt 0.530087 0.617647
vt 0.513880 0.625000
vt 0.515043 0.632353
vt 0.531250 0.625000
vt 0.500000 0.470588
vt 0.469913 0.500000
vt 0.486120 0.507353
vt 0.508685 0.485294
vt 0.484957 0.514706
vt 0.468750 0.507353
vt 0.491315 0.485294
vt 0.469913 0.617647
vt 0.486120 0.610294
vt 0.484957 0.602941
vt 0.468750 0.610294
vt 0.500000 0.647059
vt 0.508685 0.632353
vt 0.491315 0.632353
vt 0.530087 0.617647
vt 0.531250 0.610294
vt 0.515043 0.602941
vt 0.513880 0.610294
vt 0.530087 0.500000
vt 0.531250 0.507353
vt 0.515043 0.514706
vt 0.513880 0.507353
vt 0.500000 0.705882
vt 0.469913 0.735294
vt 0.486120 0.742647
vt 0.508685 0.720588
vt 0.484957 0.750000
vt 0.468750 0.742647
vt 0.491315 0.720588
vt 0.469913 0.852941
vt 0.486120 0.845588
vt 0.484957 0.838235
vt 0.468750 0.845588
vt 0.500000 0.882353
vt 0.508685 0.867647
vt 0.491315 0.867647
vt 0.530087 0.852941
vt 0.531250 0.845588
vt 0.515043 0.838235
vt 0.513880 0.845588
vt 0.530087 0.735294
vt 0.531250 0.742647
vt 0.515043 0.750000
vt 0.513880 0.742647
vt 0.530087 0.911762
vt 0.531250 0.911762
vt 0.515043 0.911762
vt 0.513880 0.911762
vn 0.6547 -0.6547 -0.3780
vn 0.6547 0.6547 0.3780
vn -0.6547 0.6547 0.3780
vn -0.6547 -0.6547 -0.3780
vn 0.6547 0.0000 -0.7559
vn 0.6547 0.0000 0.7559
vn -0.6547 -0.0000 0.7559
vn -0.6547 -0.0000 -0.7559
vn 0.6547 -0.6547 0.3780
vn 0.6547 0.6547 -0.3780
vn -0.6547 0.6547 -0.3780
vn -0.6547 -0.6547 0.3780
vn 0.3780 -0.6547 0.6547
vn -0.3780 0.6547 0.6547
vn -0.3780 0.6547 -0.6547
vn 0.3780 -0.6547 -0.6547
vn 0.7559 0.0000 0.6547
vn -0.7559 -0.0000 0.6547
vn -0.7559 -0.0000 -0.6547
vn 0.7559 0.0000 -0.6547
vn 0.3780 0.6547 0.6547
vn -0.3780 -0.6547 0.6547
vn -0.3780 -0.6547 -0.6547
vn 0.3780 0.6547 -0.6547
s off
f 9/25/7 13/26/7 14/27/7 10/28/7
f 10/28/8 14/27/8 15/29/8 11/30/8
f 11/30/9 15/29/9 16/31/9 12/32/9
f 12/32/10 16/31/10 13/26/10 9/25/10
f 13/26/11 186/33/11 187/34/11 14/27/11
f 14/27/12 187/34/12 189/35/12 15/29/12
f 15/29/13 189/35/13 188/36/13 16/31/13
f 16/31/14 188/36/14 186/33/14 13/26/14
f 17/37/15 9/25/15 10/28/15 18/38/15
f 18/38/16 10/28/16 11/30/16 19/39/16
f 19/39/17 11/30/17 12/32/17 20/40/17
f 20/40/18 12/32/18 9/25/18 17/37/18
f 21/41/7 25/42/7 26/43/7 22/44/7
f 22/44/8 26/43/8 27/45/8 23/46/8
f 23/46/9 27/45/9 28/47/9 24/48/9
f 24/48/10 28/47/10 25/42/10 21/41/10
f 25/42/11 29/49/11 30/50/11 26/43/11
f 26/43/12 30/50/12 31/51/12 27/45/12
f 27/45/13 31/51/13 32/52/13 28/47/13
f 28/47/14 32/52/14 29/49/14 25/42/14
f 29/49/16 33/53/16 34/54/16 30/50/16
f 30/50/15 34/54/15 35/55/15 31/51/15
f 31/51/18 35/55/18 36/56/18 32/52/18
f 32/52/17 36/56/17 33/53/17 29/49/17
f 33/53/8 37/57/8 38/58/8 34/54/8
f 34/54/7 38/58/7 39/59/7 35/55/7
f 35/55/10 39/59/10 40/60/10 36/56/10
f 36/56/9 40/60/9 37/57/9 33/53/9
f 37/57/12 41/61/12 42/62/12 38/58/12
f 38/58/11 42/62/11 43/63/11 39/59/11
f 39/59/14 43/63/14 44/64/14 40/60/14
f 40/60/13 44/64/13 41/61/13 37/57/13
f 41/61/15 21/41/15 22/44/15 42/62/15
f 42/62/16 22/44/16 23/46/16 43/63/16
f 43/63/17 23/46/17 24/48/17 44/64/17
f 44/64/18 24/48/18 21/41/18 41/61/18
f 45/65/19 49/66/19 50/67/19 46/68/19
f 46/68/20 50/67/20 51/69/20 47/70/20
f 47/70/21 51/69/21 52/71/21 48/72/21
f 48/72/22 52/71/22 49/66/22 45/65/22
f 49/66/23 53/73/23 54/74/23 50/67/23
f 50/67/24 54/74/24 55/75/24 51/69/24
f 51/69/25 55/75/25 56/76/25 52/71/25
f 52/71/26 56/76/26 53/73/26 49/66/26
f 53/73/27 57/77/27 58/78/27 54/74/27
f 54/74/28 58/78/28 23/46/28 55/75/28
f 55/75/29 23/46/29 59/79/29 56/76/29
f 56/76/30 59/79/30 57/77/30 53/73/30
f 57/77/20 60/80/20 61/81/20 58/78/20
f 58/78/19 61/81/19 62/82/19 23/46/19
f 23/46/22 62/82/22 63/83/22 59/79/22
f 59/79/21 63/83/21 60/80/21 57/77/21
f 60/80/24 64/84/24 65/85/24 61/81/24
f 61/81/23 65/85/23 66/86/23 62/82/23
f 62/82/26 66/86/26 67/87/26 63/83/26
f 63/83/25 67/87/25 64/84/25 60/80/25
f 64/84/28 45/65/28 46/68/28 65/85/28
f 65/85/27 46/68/27 47/70/27 66/86/27
f 66/86/30 47/70/30 48/72/30 67/87/30
f 67/87/29 48/72/29 45/65/29 64/84/29
f 68/88/19 72/89/19 73/90/19 69/91/19
f 69/91/20 73/90/20 74/92/20 70/93/20
f 70/93/21 74/92/21 75/94/21 71/95/21
f 71/95/22 75/94/22 72/89/22 68/88/22
f 72/89/23 76/96/23 77/97/23 73/90/23
f 73/90/24 77/97/24 78/98/24 74/92/24
f 74/92/25 78/98/25 79/99/25 75/94/25
f 75/94/26 79/99/26 76/96/26 72/89/26
f 76/96/27 80/100/27 81/101/27 77/97/27
f 77/97/28 81/101/28 82/102/28 78/98/28
f 78/98/29 82/102/29 83/103/29 79/99/29
f 79/99/30 83/103/30 80/100/30 76/96/30
f 80/100/20 84/104/20 85/105/20 81/101/20
f 81/101/19 85/105/19 86/106/19 82/102/19
f 82/102/22 86/106/22 87/107/22 83/103/22
f 83/103/21 87/107/21 84/104/21 80/100/21
f 84/104/24 88/108/24 89/109/24 85/105/24
f 85/105/23 89/109/23 90/110/23 86/106/23
f 86/106/26 90/110/26 91/111/26 87/107/26
f 87/107/25 91/111/25 88/108/25 84/104/25
f 88/108/28 68/88/28 69/91/28 89/109/28
f 89/109/27 69/91/27 70/93/27 90/110/27
f 90/110/30 70/93/30 71/95/30 91/111/30
f 91/111/29 71/95/29 68/88/29 88/108/29
f 92/112/7 95/113/7 96/114/7 93/115/7
f 93/115/8 96/114/8 97/116/8 82/102/8
f 82/102/9 97/116/9 98/117/9 94/118/9
f 94/118/10 98/117/10 95/113/10 92/112/10
f 95/113/11 99/119/11 100/120/11 96/114/11
f 96/114/12 100/120/12 101/121/12 97/116/12
f 97/116/13 101/121/13 102/122/13 98/117/13
f 98/117/14 102/122/14 99/119/14 95/113/14
f 99/119/16 103/123/16 104/124/16 100/120/16
f 100/120/15 104/124/15 47/70/15 101/121/15
f 101/121/18 47/70/18 105/125/18 102/122/18
f 102/122/17 105/125/17 103/123/17 99/119/17
f 103/123/8 106/126/8 107/127/8 104/124/8
f 104/124/7 107/127/7 108/128/7 47/70/7
f 47/70/10 108/128/10 109/129/10 105/125/10
f 105/125/9 109/129/9 106/126/9 103/123/9
f 106/126/12 110/130/12 111/131/12 107/127/12
f 107/127/11 111/131/11 112/132/11 108/128/11
f 108/128/14 112/132/14 113/133/14 109/129/14
f 109/129/13 113/133/13 110/130/13 106/126/13
f 110/130/15 92/112/15 93/115/15 111/131/15
f 111/131/16 93/115/16 82/102/16 112/132/16
f 112/132/17 82/102/17 94/118/17 113/133/17
f 113/133/18 94/118/18 92/112/18 110/130/18
f 114/134/7 117/135/7 118/136/7 115/137/7
f 115/137/8 118/136/8 119/138/8 150/139/8
f 150/139/9 119/138/9 120/140/9 116/141/9
f 116/141/10 120/140/10 117/135/10 114/134/10
f 117/135/11 121/142/11 122/143/11 118/136/11
f 118/136/12 122/143/12 123/144/12 119/138/12
f 119/138/13 123/144/13 124/145/13 120/140/13
f 120/140/14 124/145/14 121/142/14 117/135/14
f 121/142/16 125/146/16 126/147/16 122/143/16
f 122/143/15 126/147/15 127/148/15 123/144/15
f 123/144/18 127/148/18 128/149/18 124/145/18
f 124/145/17 128/149/17 125/146/17 121/142/17
f 125/146/8 129/150/8 130/151/8 126/147/8
f 126/147/7 130/151/7 131/152/7 127/148/7
f 127/148/10 131/152/10 132/153/10 128/149/10
f 128/149/9 132/153/9 129/150/9 125/146/9
f 129/150/12 133/154/12 134/155/12 130/151/12
f 130/151/11 134/155/11 135/156/11 131/152/11
f 131/152/14 135/156/14 136/157/14 132/153/14
f 132/153/13 136/157/13 133/154/13 129/150/13
f 133/154/15 114/134/15 115/137/15 134/155/15
f 134/155/16 115/137/16 150/139/16 135/156/16
f 135/156/17 150/139/17 116/141/17 136/157/17
f 136/157/18 116/141/18 114/134/18 133/154/18
f 137/158/19 140/159/19 141/160/19 138/161/19
f 138/161/20 141/160/20 142/162/20 35/55/20
f 35/55/21 142/162/21 143/163/21 139/164/21
f 139/164/22 143/163/22 140/159/22 137/158/22
f 140/159/23 144/165/23 145/166/23 141/160/23
f 141/160/24 145/166/24 146/167/24 142/162/24
f 142/162/25 146/167/25 147/168/25 143/163/25
f 143/163/26 147/168/26 144/165/26 140/159/26
f 144/165/27 148/169/27 149/170/27 145/166/27
f 145/166/28 149/170/28 150/139/28 146/167/28
f 146/167/29 150/139/29 151/171/29 147/168/29
f 147/168/30 151/171/30 148/169/30 144/165/30
f 148/169/20 152/172/20 153/173/20 149/170/20
f 149/170/19 153/173/19 154/174/19 150/139/19
f 150/139/22 154/174/22 155/175/22 151/171/22
f 151/171/21 155/175/21 152/172/21 148/169/21
f 152/172/24 156/176/24 157/177/24 153/173/24
f 153/173/23 157/177/23 158/178/23 154/174/23
f 154/174/26 158/178/26 159/179/26 155/175/26
f 155/175/25 159/179/25 156/176/25 152/172/25
f 156/176/28 137/158/28 138/161/28 157/177/28
f 157/177/27 138/161/27 35/55/27 158/178/27
f 158/178/30 35/55/30 139/164/30 159/179/30
f 159/179/29 139/164/29 137/158/29 156/176/29
f 160/180/19 163/181/19 164/182/19 161/183/19
f 161/183/20 164/182/20 165/184/20 127/148/20
f 127/148/21 165/184/21 166/185/21 162/186/21
f 162/186/22 166/185/22 163/181/22 160/180/22
f 163/181/23 167/187/23 168/188/23 164/182/23
f 164/182/24 168/188/24 169/189/24 165/184/24
f 165/184/25 169/189/25 170/190/25 166/185/25
f 166/185/26 170/190/26 167/187/26 163/181/26
f 167/187/27 171/191/27 172/192/27 168/188/27
f 168/188/28 172/192/28 11/30/28 169/189/28
f 169/189/29 11/30/29 173/193/29 170/190/29
f 170/190/30 173/193/30 171/191/30 167/187/30
f 171/191/20 174/194/20 175/195/20 172/192/20
f 172/192/19 175/195/19 176/196/19 11/30/19
f 11/30/22 176/196/22 177/197/22 173/193/22
f 173/193/21 177/197/21 174/194/21 171/191/21
f 174/194/24 178/198/24 179/199/24 175/195/24
f 175/195/23 179/199/23 180/200/23 176/196/23
f 176/196/26 180/200/26 181/201/26 177/197/26
f 177/197/25 181/201/25 178/198/25 174/194/25
f 178/198/28 160/180/28 161/183/28 179/199/28
f 179/199/27 161/183/27 127/148/27 180/200/27
f 180/200/30 127/148/30 162/186/30 181/201/30
f 181/201/29 162/186/29 160/180/29 178/198/29
f 182/202/13 183/203/13 20/40/13 17/37/13
f 183/203/14 184/204/14 19/39/14 20/40/14
f 184/204/11 185/205/11 18/38/11 19/39/11
f 185/205/12 182/202/12 17/37/12 18/38/12
