# Processed with obj-simplify v1.1 (a2f5cd9) | 2021-08-06T20:35:12Z | https://github.com/jonnenauha/obj-simplify

# Blender v2.93.0 OBJ File: ''
# www.blender.org

# vertices [38]

v -0.03125 0.34375 -0.03125
v -0.03125 0.09375 -0.03125
v 0 0.09375 0
v 0 0.34375 0
v -0.03125 0.09375 0.03125
v -0.03125 0.34375 0.03125
v 0.03125 0.09375 0.03125
v 0.03125 0.34375 0.03125
v 0.03125 0.34375 -0.03125
v 0.03125 0.09375 -0.03125
v 0.0625 0.03125 0.09375
v 0.0625 0.3125 0.09375
v -0.0625 0.3125 0.09375
v -0.0625 0.03125 0.09375
v 0.09375 0.03125 -0.0625
v 0.09375 0.3125 -0.0625
v 0.09375 0.3125 0.0625
v 0.09375 0.03125 0.0625
v -0.09375 0.03125 0.0625
v -0.09375 0.3125 0.0625
v -0.09375 0.3125 -0.0625
v -0.09375 0.03125 -0.0625
v -0.0625 0.03125 -0.09375
v -0.0625 0.3125 -0.09375
v 0.0625 0.3125 -0.09375
v 0.0625 0.03125 -0.09375
v -0.0625 0 0.0625
v -0.0625 0.34375 0.0625
v -0.0625 0 -0.0625
v -0.0625 0.34375 -0.0625
v 0.0625 0 0.0625
v 0.0625 0.34375 0.0625
v 0.0625 0 -0.0625
v 0.0625 0.34375 -0.0625
v -0.0625 0.5 0.0625
v -0.0625 0.5 -0.0625
v 0.0625 0.5 -0.0625
v 0.0625 0.5 0.0625

# normals [26]

vn -0.7071 0 0.7071
vn -0.7071 0 -0.7071
vn 0 0 1
vn 1 0 0
vn -1 0 0
vn 0 0 -1
vn -0.5774 -0.5774 0.5774
vn -0.5774 0.5774 0.5774
vn -0.5774 -0.5774 -0.5774
vn -0.5774 0.5774 -0.5774
vn 0.5774 -0.5774 0.5774
vn 0.5774 0.5774 0.5774
vn 0.5774 -0.5774 -0.5774
vn 0.5774 0.5774 -0.5774
vn -0.7071 -0.7071 0
vn -0.7071 0.7071 0
vn 0 -0.7071 -0.7071
vn 0 0.7071 -0.7071
vn 0.7071 0 -0.7071
vn 0.7071 -0.7071 0
vn 0.7071 0.7071 0
vn 0.7071 0 0.7071
vn 0 -0.7071 0.7071
vn 0 0.7071 0.7071
vn 0 -1 0
vn 0 1 0

# uvs [65]

vt 0 1
vt 0 0.75
vt 0.03125 0.75
vt 0.03125 1
vt 0.0625 0.75
vt 0.0625 1
vt 0.4375 0.65625
vt 0.4375 0.9375
vt 0.3125 0.9375
vt 0.3125 0.65625
vt 0.625 0.65625
vt 0.625 0.9375
vt 0.5 0.9375
vt 0.5 0.65625
vt 1 0.65625
vt 1 0.9375
vt 0.875 0.9375
vt 0.875 0.65625
vt 0.8125 0.65625
vt 0.8125 0.9375
vt 0.6875 0.9375
vt 0.6875 0.65625
vt 0.28125 0.59375
vt 0.25 0.65625
vt 0.28125 1
vt 0.25 0.9375
vt 0.84375 0.59375
vt 0.84375 1
vt 0.46875 0.59375
vt 0.46875 1
vt 0.65625 0.59375
vt 0.65625 1
vt 0.875 0.59375
vt 1 0.59375
vt 1 1
vt 0.875 1
vt 0.6875 0.59375
vt 0.8125 0.59375
vt 0.8125 1
vt 0.6875 1
vt 0.5 0.59375
vt 0.625 0.59375
vt 0.625 1
vt 0.5 1
vt 0.3125 0.59375
vt 0.4375 0.59375
vt 0.4375 1
vt 0.3125 1
vt 0.25 1
vt 0.125 1
vt 0.125 0.875
vt 0.25 0.875
vt 0.5 0
vt 0.5 0.15625
vt 0.375 0.15625
vt 0.375 0
vt 0.25 0.15625
vt 0.25 0
vt 0.125 0.15625
vt 0.125 0
vt 0 0.15625
vt 0 0
vt 0.125 0.28125
vt 0 0.28125
vt 0.25 0.28125

# objects [3]

g Light

s 1
f 1/1/1 2/2/1 3/3/1 4/4/1
f 5/5/2 6/6/2 4/4/2 3/3/2
f 4/4/1 3/3/1 7/2/1 8/1/1
f 3/3/2 4/4/2 9/6/2 10/5/2

g Bulb

s 1
f 11/7/3 12/8/3 13/9/3 14/10/3
f 15/11/4 16/12/4 17/13/4 18/14/4
f 19/15/5 20/16/5 21/17/5 22/18/5
f 23/19/6 24/20/6 25/21/6 26/22/6
f 27/23/7 14/10/7 19/24/7
f 13/9/8 28/25/8 20/26/8
f 29/27/9 22/18/9 23/19/9
f 30/28/10 24/20/10 21/17/10
f 31/29/11 18/14/11 11/7/11
f 32/30/12 12/8/12 17/13/12
f 33/31/13 26/22/13 15/11/13
f 34/32/14 16/12/14 25/21/14
f 29/33/15 27/34/15 19/15/15 22/18/15
f 14/10/1 13/9/1 20/26/1 19/24/1
f 28/35/16 30/36/16 21/17/16 20/16/16
f 24/20/2 23/19/2 22/18/2 21/17/2
f 33/37/17 29/38/17 23/19/17 26/22/17
f 30/39/18 34/40/18 25/21/18 24/20/18
f 16/12/19 15/11/19 26/22/19 25/21/19
f 31/41/20 33/42/20 15/11/20 18/14/20
f 34/43/21 32/44/21 17/13/21 16/12/21
f 12/8/22 11/7/22 18/14/22 17/13/22
f 27/45/23 31/46/23 11/7/23 14/10/23
f 32/47/24 28/48/24 13/9/24 12/8/24
f 29/49/25 33/50/25 31/51/25 27/52/25

g Base

s 1
f 28/53/5 35/54/5 36/55/5 30/56/5
f 30/56/6 36/55/6 37/57/6 34/58/6
f 34/58/4 37/57/4 38/59/4 32/60/4
f 32/60/3 38/59/3 35/61/3 28/62/3
f 30/59/25 34/63/25 32/64/25 28/61/25
f 37/65/26 36/63/26 35/59/26 38/57/26

