# Processed with obj-simplify v1.1 (a2f5cd9) | 2021-08-06T19:07:59Z | https://github.com/jonnenauha/obj-simplify

# Blender v2.93.0 OBJ File: ''
# www.blender.org

# vertices [28]

v 0.125 -0.25 0.375
v 0.125 0.25 0.375
v -0.125 0.25 0.375
v -0.125 -0.25 0.375
v -0.125 0.25 0.125
v -0.125 -0.25 0.125
v 0.125 0.25 0.125
v 0.125 -0.25 0.125
v -0.03125 -0.34375 0.4375
v -0.03125 -0.28125 0.4375
v -0.03125 -0.28125 0.28125
v -0.03125 -0.34375 0.21875
v -0.03125 -0.25 0.28125
v -0.03125 -0.25 0.21875
v 0.03125 -0.34375 0.21875
v 0.03125 -0.28125 0.28125
v 0.03125 -0.28125 0.4375
v 0.03125 -0.34375 0.4375
v 0.03125 -0.25 0.21875
v 0.03125 -0.25 0.28125
v 0.125 -0.375 0.5
v 0.125 0.125 0.5
v -0.125 0.125 0.5
v -0.125 -0.375 0.5
v -0.125 0.125 0.4375
v -0.125 -0.375 0.4375
v 0.125 0.125 0.4375
v 0.125 -0.375 0.4375

# normals [6]

vn 0 0 1
vn -1 0 0
vn 0 0 -1
vn 1 0 0
vn 0 -1 0
vn 0 1 0

# uvs [41]

vt 1 0.5
vt 1 1
vt 0.75 1
vt 0.75 0.5
vt 0.5 1
vt 0.5 0.5
vt 0.25 1
vt 0.25 0.5
vt 0 1
vt 0 0.5
vt 0 0.25
vt 0.25 0.25
vt 0.03125 0.0625
vt 0.03125 0.125
vt 0.1875 0.125
vt 0.25 0.0625
vt 0.1875 0.15625
vt 0.25 0.15625
vt 0.25 0
vt 0.03125 0
vt 0.1875 0.25
vt 0.03125 0.25
vt 0.03125 0.1875
vt 0.1875 0.1875
vt 0.34375 0.0625
vt 0.34375 0
vt 0.21875 0.1875
vt 0.21875 0.25
vt 0.9375 0
vt 0.9375 0.5
vt 0.6875 0.5
vt 0.6875 0
vt 0.625 0.5
vt 0.625 0
vt 0.375 0.5
vt 0.375 0
vt 0.3125 0.5
vt 0.3125 0
vt 0.9375 0.25
vt 1 0.25
vt 1 0

# objects [1]

o WallLamp

s 1
f 1/1/1 2/2/1 3/3/1 4/4/1
f 4/4/2 3/3/2 5/5/2 6/6/2
f 6/6/3 5/5/3 7/7/3 8/8/3
f 8/8/4 7/7/4 2/9/4 1/10/4
f 4/8/5 6/10/5 8/11/5 1/12/5
f 5/8/6 3/10/6 2/11/6 7/12/6
f 9/13/2 10/14/2 11/15/2 12/16/2
f 12/16/2 11/15/2 13/17/2 14/18/2
f 15/16/4 16/15/4 17/14/4 18/13/4
f 9/13/5 12/16/5 15/19/5 18/20/5
f 11/21/6 10/22/6 17/23/6 16/24/6
f 16/15/4 15/16/4 19/18/4 20/17/4
f 15/19/3 12/16/3 14/25/3 19/26/3
f 11/21/1 16/24/1 20/27/1 13/28/1
f 21/29/1 22/30/1 23/31/1 24/32/1
f 24/32/2 23/31/2 25/33/2 26/34/2
f 26/34/3 25/33/3 27/35/3 28/36/3
f 28/36/4 27/35/4 22/37/4 21/38/4
f 24/39/5 26/40/5 28/1/5 21/30/5
f 25/29/6 23/41/6 22/40/6 27/39/6

