# Blender v2.79 (sub 0) OBJ File: 'modern_can_2.blend'
# www.blender.org
o Cylinder_Cylinder.002
v -0.051777 -0.000000 -0.125000
v -0.051777 0.500000 -0.125000
v 0.051777 0.500000 -0.125000
v 0.051777 -0.000000 -0.125000
v 0.125000 -0.000000 0.051777
v 0.051777 -0.000000 0.125000
v -0.051777 -0.000000 0.125000
v -0.125000 -0.000000 0.051777
v -0.125000 -0.000000 -0.051777
v -0.100000 -0.000000 -0.041421
v -0.100000 -0.000000 0.041421
v -0.041421 -0.000000 0.100000
v 0.041421 -0.000000 0.100000
v 0.100000 -0.000000 0.041421
v 0.125000 -0.000000 -0.051777
v 0.100000 -0.000000 -0.041421
v 0.041421 -0.000000 -0.100000
v -0.041421 -0.000000 -0.100000
v -0.125000 0.500000 -0.051777
v -0.125000 0.500000 0.051777
v -0.051777 0.500000 0.125000
v 0.051777 0.500000 0.125000
v 0.125000 0.500000 0.051777
v 0.125000 0.500000 -0.051777
v 0.041421 0.125000 -0.100000
v -0.041421 0.125000 -0.100000
v -0.100000 0.125000 -0.041421
v 0.100000 0.125000 -0.041421
v 0.100000 0.125000 0.041421
v 0.041421 0.125000 0.100000
v -0.041421 0.125000 0.100000
v -0.100000 0.125000 0.041421
vt 0.375000 0.500000
vt 0.375000 1.000000
vt 0.250000 1.000000
vt 0.250000 0.500000
vt 0.500000 0.500000
vt 0.500000 1.000000
vt 0.239277 0.937500
vt 0.135723 0.937500
vt 0.062500 0.864257
vt 0.062500 0.760704
vt 0.135723 0.687500
vt 0.239277 0.687500
vt 0.312500 0.760704
vt 0.312500 0.864257
vt 0.125000 1.000000
vt 0.125000 0.500000
vt 0.000000 1.000000
vt 0.000000 0.500000
vt 1.000000 0.500000
vt 1.000000 1.000000
vt 0.875000 1.000000
vt 0.875000 0.500000
vt 0.750000 1.000000
vt 0.750000 0.500000
vt 0.625000 1.000000
vt 0.625000 0.500000
vt 0.375000 0.437500
vt 0.250000 0.437500
vt 0.250000 0.312500
vt 0.375000 0.312500
vt 0.500000 0.437500
vt 0.500000 0.312500
vt 0.176777 0.000000
vt 0.250000 0.073223
vt 0.250000 0.176777
vt 0.176777 0.250000
vt 0.073223 0.250000
vt 0.000000 0.176777
vt 0.000000 0.073223
vt 0.073223 0.000000
vt 0.125000 0.437500
vt 0.125000 0.312500
vt 0.625000 0.437500
vt 0.625000 0.312500
vt 0.750000 0.437500
vt 0.750000 0.312500
vt 0.875000 0.437500
vt 0.875000 0.312500
vt 1.000000 0.437500
vt 1.000000 0.312500
vt 0.000000 0.437500
vt 0.000000 0.312500
vn 0.0000 0.0000 -1.0000
vn -0.7071 0.0000 -0.7071
vn 0.0000 1.0000 -0.0000
vn 0.7071 0.0000 -0.7071
vn 1.0000 0.0000 0.0000
vn 0.7071 0.0000 0.7071
vn -0.0000 0.0000 1.0000
vn -0.7071 0.0000 0.7071
vn -1.0000 0.0000 0.0000
vn 0.0000 -1.0000 0.0000
s off
f 1/1/1 2/2/1 3/3/1 4/4/1
f 9/5/2 19/6/2 2/2/2 1/1/2
f 3/7/3 2/8/3 19/9/3 20/10/3 21/11/3 22/12/3 23/13/3 24/14/3
f 4/4/4 3/3/4 24/15/4 15/16/4
f 15/16/5 24/15/5 23/17/5 5/18/5
f 5/19/6 23/20/6 22/21/6 6/22/6
f 6/22/7 22/21/7 21/23/7 7/24/7
f 7/24/8 21/23/8 20/25/8 8/26/8
f 8/26/9 20/25/9 19/6/9 9/5/9
f 18/27/7 17/28/7 25/29/7 26/30/7
f 10/31/6 18/27/6 26/30/6 27/32/6
f 25/33/10 28/34/10 29/35/10 30/36/10 31/37/10 32/38/10 27/39/10 26/40/10
f 17/28/8 16/41/8 28/42/8 25/29/8
f 11/43/5 10/31/5 27/32/5 32/44/5
f 12/45/4 11/43/4 32/44/4 31/46/4
f 13/47/1 12/45/1 31/46/1 30/48/1
f 14/49/2 13/47/2 30/48/2 29/50/2
f 16/41/9 14/51/9 29/52/9 28/42/9
f 10/31/10 9/5/10 1/1/10 18/27/10
f 1/1/10 4/4/10 17/28/10 18/27/10
f 4/4/10 15/16/10 16/41/10 17/28/10
f 14/51/10 16/41/10 15/16/10 5/18/10
f 14/49/10 5/19/10 6/22/10 13/47/10
f 13/47/10 6/22/10 7/24/10 12/45/10
f 7/24/10 8/26/10 11/43/10 12/45/10
f 11/43/10 8/26/10 9/5/10 10/31/10
