# Blender v2.79 (sub 0) OBJ File: 'modern_tablelamp_joined.blend'
# www.blender.org
o support_Plane.001
v 0.031250 0.312500 0.031250
v 0.218750 0.312500 0.031250
v 0.031250 0.343750 0.000000
v 0.218750 0.343750 0.000000
v 0.031250 0.312500 -0.031250
v 0.218750 0.312500 -0.031250
v -0.218750 0.312500 0.031250
v -0.031250 0.312500 0.031250
v -0.218750 0.343750 0.000000
v -0.031250 0.343750 0.000000
v -0.218750 0.312500 -0.031250
v -0.031250 0.312500 -0.031250
vt 0.531250 0.468748
vt 0.718750 0.468748
vt 0.718750 0.499998
vt 0.531250 0.499998
vt 0.718750 0.531248
vt 0.531250 0.531248
vt 0.281250 0.468748
vt 0.468750 0.468748
vt 0.468750 0.499998
vt 0.281250 0.499998
vt 0.468750 0.531248
vt 0.281250 0.531248
vn 0.0000 0.7071 0.7071
vn 0.0000 0.7071 -0.7071
g Material.000
s off
f 1/1/1 2/2/1 4/3/1 3/4/1
f 3/4/2 4/3/2 6/5/2 5/6/2
f 7/7/1 8/8/1 10/9/1 9/10/1
f 9/10/2 10/9/2 12/11/2 11/12/2
o pole_Cube.007
v -0.031250 -0.437500 0.031250
v -0.031250 0.375000 0.031250
v -0.031250 -0.437500 -0.031250
v -0.031250 0.375000 -0.031250
v 0.031250 -0.437500 0.031250
v 0.031250 0.375000 0.031250
v 0.031250 -0.437500 -0.031250
v 0.031250 0.375000 -0.031250
vt 0.312500 0.062500
vt 0.312500 0.875000
vt 0.250000 0.875000
vt 0.250000 0.062500
vt 0.312500 0.062500
vt 0.312500 0.875000
vt 0.250000 0.875000
vt 0.250000 0.062500
vt 0.312500 0.062500
vt 0.312500 0.875000
vt 0.250000 0.875000
vt 0.250000 0.062500
vt 0.312501 0.062500
vt 0.312499 0.875000
vt 0.250000 0.875000
vt 0.250000 0.062500
vt 0.312500 0.531250
vt 0.250000 0.531250
vt 0.250000 0.468750
vt 0.312500 0.468750
vn -1.0000 0.0000 0.0000
vn 0.0000 0.0000 -1.0000
vn 1.0000 0.0000 0.0000
vn 0.0000 0.0000 1.0000
vn 0.0000 1.0000 0.0000
g Material.000
s off
f 13/13/3 14/14/3 16/15/3 15/16/3
f 15/17/4 16/18/4 20/19/4 19/20/4
f 19/21/5 20/22/5 18/23/5 17/24/5
f 17/25/6 18/26/6 14/27/6 13/28/6
f 20/29/7 16/30/7 14/31/7 18/32/7
o base_Cube.006
v -0.187500 -0.500000 0.187500
v -0.187500 -0.437500 0.187500
v -0.187500 -0.500000 -0.187500
v -0.187500 -0.437500 -0.187500
v 0.187500 -0.500000 0.187500
v 0.187500 -0.437500 0.187500
v 0.187500 -0.500000 -0.187500
v 0.187500 -0.437500 -0.187500
vt 0.312500 0.062500
vt 0.312500 0.000000
vt 0.687500 0.000000
vt 0.687500 0.062500
vt 0.312500 0.062500
vt 0.312500 0.000000
vt 0.687500 0.000000
vt 0.687500 0.062500
vt 0.687500 0.000000
vt 0.687500 0.062500
vt 0.312500 0.062500
vt 0.312500 0.000000
vt 0.687500 0.000000
vt 0.687500 0.062500
vt 0.312500 0.062500
vt 0.312500 0.000000
vt 0.687500 0.312500
vt 0.687500 0.687500
vt 0.312500 0.687500
vt 0.312500 0.312500
vt 0.687500 0.312500
vt 0.687500 0.687500
vt 0.312500 0.687500
vt 0.312500 0.312500
vn -1.0000 0.0000 0.0000
vn 0.0000 0.0000 -1.0000
vn 1.0000 0.0000 0.0000
vn 0.0000 0.0000 1.0000
vn 0.0000 -1.0000 0.0000
vn 0.0000 1.0000 0.0000
g Material.000
s off
f 21/33/8 22/34/8 24/35/8 23/36/8
f 23/37/9 24/38/9 28/39/9 27/40/9
f 27/41/10 28/42/10 26/43/10 25/44/10
f 25/45/11 26/46/11 22/47/11 21/48/11
f 23/49/12 27/50/12 25/51/12 21/52/12
f 28/53/13 24/54/13 22/55/13 26/56/13
o shade_Cube.005
v -0.250000 -0.062500 0.250000
v -0.250000 0.437500 0.250000
v -0.250000 -0.062500 -0.250000
v -0.250000 0.437500 -0.250000
v 0.250000 -0.062500 0.250000
v 0.250000 0.437500 0.250000
v 0.250000 -0.062500 -0.250000
v 0.250000 0.437500 -0.250000
v -0.218750 -0.062500 0.218750
v -0.218750 0.437500 0.218750
v -0.218750 -0.062500 -0.218750
v -0.218750 0.437500 -0.218750
v 0.218750 -0.062500 0.218750
v 0.218750 0.437500 0.218750
v 0.218750 -0.062500 -0.218750
v 0.218750 0.437500 -0.218750
vt 0.000000 0.000000
vt 0.000000 1.000000
vt 1.000000 1.000000
vt 1.000000 0.000000
vt 0.000000 0.000000
vt 0.000000 1.000000
vt 1.000000 1.000000
vt 1.000000 0.000000
vt 0.000000 1.000000
vt 0.000000 0.000000
vt 1.000000 0.000000
vt 1.000000 1.000000
vt 0.062500 0.000000
vt 0.062500 1.000000
vt 0.937500 1.000000
vt 0.937500 0.000000
vt 0.062500 0.000000
vt 0.062500 1.000000
vt 0.937500 1.000000
vt 0.937500 0.000000
vt 0.062500 0.000000
vt 0.062500 1.000000
vt 0.937500 1.000000
vt 0.937500 0.000000
vt 0.062500 0.000000
vt 0.062500 1.000000
vt 0.937500 1.000000
vt 0.937500 0.000000
vt 0.000000 0.000000
vt 1.000000 0.000000
vt 0.937500 0.062500
vt 0.062500 0.062500
vt 0.062500 0.937500
vt 0.937500 0.937500
vt 0.000000 1.000000
vt 0.062500 0.062500
vt 0.062500 0.937500
vt 0.937500 0.062500
vt 1.000000 1.000000
vt 0.937500 0.937500
vn -1.0000 0.0000 0.0000
vn 0.0000 0.0000 -1.0000
vn 1.0000 0.0000 0.0000
vn 0.0000 0.0000 1.0000
vn 0.0000 1.0000 0.0000
vn 0.0000 -1.0000 0.0000
g Material.001
s off
f 29/57/14 30/58/14 32/59/14 31/60/14
f 31/61/15 32/62/15 36/63/15 35/64/15
f 35/64/16 36/63/16 34/65/16 33/66/16
f 33/67/17 34/68/17 30/58/17 29/57/17
f 39/69/15 40/70/15 44/71/15 43/72/15
f 37/73/14 38/74/14 40/75/14 39/76/14
f 43/77/16 44/78/16 42/79/16 41/80/16
f 41/81/17 42/82/17 38/83/17 37/84/17
f 30/85/18 34/86/18 42/87/18 38/88/18
f 32/62/18 30/85/18 38/88/18 40/89/18
f 36/63/18 32/62/18 40/89/18 44/90/18
f 34/86/18 36/63/18 44/90/18 42/87/18
f 29/91/19 31/61/19 39/92/19 37/93/19
f 31/61/19 35/64/19 43/94/19 39/92/19
f 35/64/19 33/95/19 41/96/19 43/94/19
f 33/95/19 29/91/19 37/93/19 41/96/19
